HIERARCHY
ROOT Root
{
	OFFSET 0.00000 0.00000 0.00000
	CHANNELS 6 Xposition Yposition Zposition Zrotation Xrotation Yrotation
	JOINT Hip
	{
		OFFSET 0 0 0	
		CHANNELS 3 Zrotation Xrotation Yrotation
		JOINT Tummy
		{
			OFFSET 0 0.04 0	
			CHANNELS 3 Zrotation Xrotation Yrotation
			JOINT ChestBottom
			{
				OFFSET 0 0.194 0	
				CHANNELS 3 Zrotation Xrotation Yrotation
				JOINT ChestTop
				{
					OFFSET 0 0.166 0	
					CHANNELS 3 Zrotation Xrotation Yrotation
					JOINT LeftCollar
					{
						OFFSET 0 0.1 0	
						CHANNELS 3 Zrotation Xrotation Yrotation
						JOINT LeftUpperArm
						{
							OFFSET 0.156 -0.02 0.03	
							CHANNELS 3 Zrotation Xrotation Yrotation
							JOINT LeftForeArm
							{
								OFFSET 0.035 -0.27 -0.01	
								CHANNELS 3 Zrotation Xrotation Yrotation
								JOINT LeftHand
								{
									OFFSET 0.01 -0.27 0.01	
									CHANNELS 3 Zrotation Xrotation Yrotation
									End Site
									{
										OFFSET 0 -0.15 0
									}
								}
							}
						}
					}
					JOINT RightCollar
					{
						OFFSET 0 0.1 0	
						CHANNELS 3 Zrotation Xrotation Yrotation
						JOINT RightUpperArm
						{
							OFFSET -0.156 -0.02 0.03	
							CHANNELS 3 Zrotation Xrotation Yrotation
							JOINT RightForeArm
							{
								OFFSET -0.035 -0.27 -0.01	
								CHANNELS 3 Zrotation Xrotation Yrotation
								JOINT RightHand
								{
									OFFSET -0.01 -0.27 0.01	
									CHANNELS 3 Zrotation Xrotation Yrotation
									End Site
									{
										OFFSET 0 -0.15 0
									}
								}
							}
						}
					}
					JOINT Neck
					{
						OFFSET 0 0.1 0	
						CHANNELS 3 Zrotation Xrotation Yrotation
						JOINT Head
						{
							OFFSET 0 0.127 0.03	
							CHANNELS 3 Zrotation Xrotation Yrotation
							End Site
							{
								OFFSET 0 0.127 0.03
							}
						}
					}
				}
			}
		}
	}
	JOINT LeftHip
	{
		OFFSET 0 0 0	
		CHANNELS 3 Zrotation Xrotation Yrotation
		JOINT LeftThigh
		{
			OFFSET 0.088 -0.06 0	
			CHANNELS 3 Zrotation Xrotation Yrotation
			JOINT LeftLowerLeg
			{
				OFFSET 0 -0.39 0.02	
				CHANNELS 3 Zrotation Xrotation Yrotation
				JOINT LeftFootTop
				{
					OFFSET 0 -0.43 -0.02	
					CHANNELS 3 Zrotation Xrotation Yrotation
					JOINT LeftFootFront
					{
						OFFSET 0 -0.07 0.085	
						CHANNELS 3 Zrotation Xrotation Yrotation
						End Site
						{
							OFFSET 0 -0.005 0.09
						}
					}
				}
				JOINT LeftHeel
				{
					OFFSET 0 -0.43 -0.02	
					CHANNELS 3 Zrotation Xrotation Yrotation
					End Site
					{
						OFFSET 0 -0.075 -0.05
					}
				}
			}
		}
	}
	JOINT RightHip
	{
		OFFSET 0 0 0	
		CHANNELS 3 Zrotation Xrotation Yrotation
		JOINT RightThigh
		{
			OFFSET -0.088 -0.06 0	
			CHANNELS 3 Zrotation Xrotation Yrotation
			JOINT RightLowerLeg
			{
				OFFSET 0 -0.39 0.02	
				CHANNELS 3 Zrotation Xrotation Yrotation
				JOINT RightFootTop
				{
					OFFSET 0 -0.43 -0.02	
					CHANNELS 3 Zrotation Xrotation Yrotation
					JOINT RightFootFront
					{
						OFFSET 0 -0.07 0.085	
						CHANNELS 3 Zrotation Xrotation Yrotation
						End Site
						{
							OFFSET 0 -0.005 0.09
						}
					}
				}
				JOINT RightHeel
				{
					OFFSET 0 -0.43 -0.02	
					CHANNELS 3 Zrotation Xrotation Yrotation
					End Site
					{
						OFFSET 0 -0.075 -0.05
					}
				}
			}
		}
	}
}
MOTION
Frames: 12
Frame Time: 0.05
0 0.95485 0 -0 0 -0 -0.32795 0.88847 -5.91 1.2643 -0.9205 1.3446 1.2643 -0.9205 1.3446 1.0605 -0.77522 1.1281 -0 0 -0 -1.7734 -0.07666 -6.5415 -1.6378 0.86863 4.7791 1.6375 -1.1679 -15.745 -0 0 -0 -1.8984 3.9568 0.37126 0.14236 -1.5412 -2.6956 -1.2396 1.0153 0.57194 -0.64564 0.28976 4.2025 -0.64565 0.28976 4.2025 -0.32795 0.88847 -5.91 -0.92647 -2.6776 -2.5412 -2.4022 2.2322 1.2797 4.2103 -0.66149 4.683 -0 0 2.2303e-08 -0 0 -0 -0.32795 0.88847 -5.91 0.60567 0.27494 -2.2033 -1.5953 2.0122 0.98722 1.5203 -1.4506 -0.43062 1.0863e-08 -1.9995 6.2248e-07 -0 0 -0 
0 0.95482 0 -0 0 -0 -0.31847 0.9008 -5.8972 1.278 -0.92223 1.3319 1.278 -0.92223 1.3319 1.072 -0.77668 1.1174 -0 0 -0 -1.838 -0.083807 -6.5176 -1.6618 0.87421 4.7957 1.6776 -1.1751 -15.759 -0 0 -0 -1.9364 3.9552 0.36723 0.15013 -1.5204 -2.6898 -1.2891 0.85084 0.53108 -0.67693 0.29383 4.2136 -0.67693 0.29383 4.2136 -0.31847 0.9008 -5.8972 -0.92398 -2.6933 -2.5549 -2.3974 2.2338 1.249 4.1945 -0.65829 4.7142 -0.023347 -0.002026 0.00012328 -0 0 -0 -0.31847 0.9008 -5.8972 0.60081 0.24811 -2.2149 -1.6309 2.0263 0.99886 1.5518 -1.4522 -0.44187 0.0091713 -1.9997 -0.009884 -0 0 -0 
0 0.95478 0 -0 0 -0 -0.30773 0.91364 -5.8841 1.2903 -0.93363 1.3218 1.2903 -0.93363 1.3218 1.0824 -0.78626 1.1089 -0 0 -0 -1.8978 -0.066401 -6.4834 -1.6659 0.88341 4.7817 1.6733 -1.2343 -15.764 -0 0 -0 -1.9682 3.9783 0.35828 0.15284 -1.5063 -2.6817 -1.3204 0.73031 0.48713 -0.70774 0.31165 4.2225 -0.70774 0.31165 4.2225 -0.30773 0.91364 -5.8841 -0.92441 -2.6996 -2.5883 -2.3893 2.224 1.2335 4.1536 -0.65816 4.7486 -0.016643 -0.017898 -0.0051821 -0 0 -0 -0.30773 0.91364 -5.8841 0.59934 0.22299 -2.2369 -1.625 2.0551 1.0118 1.5459 -1.5403 -0.45531 0.011127 -1.9293 -0.010285 -0 0 -0 
0 0.95474 0 -0 0 -0 -0.29035 0.91961 -5.8754 1.3031 -0.94025 1.3104 1.3031 -0.94025 1.3104 1.0931 -0.79182 1.0993 -0 0 -0 -1.9643 -0.058121 -6.4553 -1.6506 0.8864 4.7755 1.6216 -1.2464 -15.78 -0 0 -0 -2.0087 3.9712 0.35409 0.17525 -1.4961 -2.7028 -1.3721 0.70256 0.53617 -0.74861 0.32318 4.2374 -0.74861 0.32318 4.2374 -0.29035 0.91961 -5.8754 -0.93539 -2.6837 -2.5914 -2.3715 2.1959 1.1836 4.1166 -0.66926 4.785 0.050637 -0.001224 -0.014641 -0 0 -0 -0.29035 0.91961 -5.8754 0.59738 0.21271 -2.2686 -1.6198 2.076 1.0332 1.5357 -1.6324 -0.46417 0.031812 -1.8568 -0.0099184 -0 0 -0 
0 0.95471 0 -0 0 -0 -0.25595 0.92222 -5.8798 1.3033 -0.94413 1.3056 1.3033 -0.94413 1.3056 1.0933 -0.79507 1.0952 -0 0 -0 -2.0008 -0.059072 -6.4482 -1.6589 0.88702 4.7793 1.6085 -1.2531 -15.792 -0 0 -0 -2.0215 3.9423 0.32548 0.18326 -1.4712 -2.677 -1.4038 0.63973 0.49813 -0.78756 0.32448 4.2559 -0.78756 0.32448 4.2559 -0.25595 0.92222 -5.8798 -0.96225 -2.6818 -2.5972 -2.3528 2.1788 1.1613 4.1422 -0.65525 4.8012 0.054643 -0.019167 -0.0050009 -0 0 -0 -0.25595 0.92222 -5.8798 0.57853 0.20889 -2.2839 -1.5974 2.0954 1.0292 1.5295 -1.7171 -0.45085 0.056706 -1.7938 -0.0097775 -0 0 -0 
0 0.9547 0 -0 0 -0 -0.23617 0.93675 -5.8814 1.3178 -0.95605 1.2757 1.3178 -0.95605 1.2757 1.1055 -0.80506 1.0701 -0 0 -0 -2.0683 -0.045946 -6.3799 -1.6474 0.88998 4.7514 1.623 -1.2952 -15.772 -0 0 -0 -2.0683 3.9539 0.39094 0.18202 -1.4628 -2.6713 -1.4289 0.53052 0.4742 -0.8258 0.33451 4.3103 -0.8258 0.33451 4.3103 -0.23617 0.93675 -5.8814 -0.97514 -2.6895 -2.6199 -2.3357 2.1758 1.1411 4.1757 -0.67312 4.84 0.020162 -0.041847 -0.0032615 -0 0 -0 -0.23617 0.93675 -5.8814 0.57113 0.18314 -2.2962 -1.6424 2.1083 1.0437 1.6195 -1.748 -0.4582 -0.040413 -1.7685 -0.017054 -0 0 -0 
0 0.95471 0 -0 0 -0 -0.21916 0.9528 -5.8805 1.3454 -0.96566 1.2391 1.3454 -0.96566 1.2391 1.1287 -0.81312 1.0393 -0 0 -0 -2.1673 -0.040764 -6.3295 -1.6582 0.85989 4.8059 1.618 -1.2372 -15.794 -0 0 -0 -2.1604 3.9613 0.48286 0.19157 -1.4508 -2.7216 -1.4642 0.46232 0.53217 -0.8727 0.362 4.3552 -0.8727 0.362 4.3552 -0.21916 0.9528 -5.8805 -0.97494 -2.7127 -2.6274 -2.3317 2.1837 1.1013 4.1798 -0.71271 4.8831 0.043959 -0.02776 -0.0059505 -0 0 -0 -0.21916 0.9528 -5.8805 0.55845 0.15211 -2.309 -1.6802 2.1271 1.0566 1.6132 -1.8207 -0.47571 -0.026704 -1.7022 -0.0085684 -0 0 -0 
0 0.95474 0 -0 0 -0 -0.21165 0.94547 -5.8919 1.36 -0.97934 1.2249 1.36 -0.97934 1.2249 1.1409 -0.8246 1.0273 -0 0 -0 -2.2214 -0.012068 -6.2825 -1.6805 0.8134 4.8358 1.6165 -1.1468 -15.853 -0 0 -0 -2.2041 3.985 0.49566 0.19672 -1.4441 -2.7425 -1.4785 0.44709 0.58365 -0.88912 0.39997 4.3554 -0.88912 0.39997 4.3554 -0.21165 0.94547 -5.8919 -0.97468 -2.7121 -2.6202 -2.3229 2.1942 1.0624 4.2094 -0.73848 4.921 0.050085 0.044988 -0.0082063 -0 0 -0 -0.21165 0.94547 -5.8919 0.55194 0.15026 -2.3041 -1.6528 2.1535 1.0679 1.5568 -1.8153 -0.49054 -0.010619 -1.725 -0.0077225 -0 0 -0 
0 0.95478 0 -0 0 -0 -0.20293 0.92694 -5.9089 1.3678 -0.99278 1.2135 1.3678 -0.99278 1.2135 1.1476 -0.83589 1.0177 -0 0 -0 -2.2634 0.0074216 -6.231 -1.6773 0.80819 4.8142 1.6086 -1.0981 -15.832 -0 0 -0 -2.2301 4.0167 0.49677 0.18705 -1.4381 -2.6933 -1.4957 0.40175 0.5649 -0.90643 0.43221 4.3784 -0.90643 0.43221 4.3784 -0.20293 0.92694 -5.9089 -0.97588 -2.6927 -2.6121 -2.3004 2.1887 0.98768 4.2251 -0.68012 4.9958 -0.02529 -0.014169 -0.0054212 -0 0 -0 -0.20293 0.92694 -5.9089 0.54404 0.15496 -2.2899 -1.6803 2.1184 1.0692 1.5717 -1.7389 -0.49738 0.016246 -1.7539 -0.0090101 -0 0 -0 
0 0.95483 0 -0 0 -0 -0.18863 0.90262 -5.9195 1.3854 -1.0077 1.1945 1.3854 -1.0077 1.1945 1.1623 -0.84844 1.0017 -0 0 -0 -2.3322 0.046765 -6.196 -1.7032 0.79569 4.8545 1.6246 -1.1384 -15.847 -0 0 -0 -2.3021 4.0665 0.54714 0.22184 -1.4487 -2.7242 -1.5457 0.39728 0.60186 -0.94519 0.46503 4.4357 -0.94519 0.46503 4.4357 -0.18863 0.90262 -5.9195 -0.99041 -2.6693 -2.6252 -2.2917 2.1841 0.95305 4.1906 -0.68929 5.0479 -0.031311 0.01017 -0.0053897 -0 0 -0 -0.18863 0.90262 -5.9195 0.52757 0.15414 -2.2884 -1.6833 2.0939 1.0783 1.5907 -1.6643 -0.50685 -0.044824 -1.7807 -0.012818 -0 0 -0 
0 0.95487 0 -0 0 -0 -0.17699 0.88082 -5.9313 1.3984 -1.0167 1.1832 1.3984 -1.0167 1.1832 1.1732 -0.85596 0.99222 -0 0 -0 -2.3921 0.054945 -6.1615 -1.7155 0.80587 4.8592 1.6448 -1.101 -15.859 -0 0 -0 -2.3647 4.0968 0.58705 0.26694 -1.459 -2.7443 -1.5883 0.40331 0.61666 -0.97813 0.47262 4.4674 -0.97813 0.47262 4.4674 -0.17699 0.88082 -5.9313 -0.99875 -2.6465 -2.6103 -2.2818 2.1692 0.90507 4.1447 -0.66621 5.0857 0.054776 0.023894 -0.0039154 -0 0 -0 -0.17699 0.88082 -5.9313 0.5139 0.15381 -2.2969 -1.7085 2.1234 1.0997 1.5696 -1.6654 -0.52069 -0.04493 -1.7891 -0.015066 -0 0 -0 
0 0.95492 0 -0 0 -0 -0.16604 0.87349 -5.9433 1.4137 -1.0344 1.168 1.4137 -1.0344 1.168 1.186 -0.87083 0.97943 -0 0 -0 -2.4543 0.084712 -6.1184 -1.7244 0.82192 4.861 1.6655 -1.0672 -15.854 -0 0 -0 -2.413 4.1104 0.60428 0.26557 -1.4252 -2.6838 -1.4968 0.404 0.48854 -1.0046 0.46821 4.4831 -1.0046 0.46821 4.4831 -0.16604 0.87349 -5.9433 -1.0032 -2.6384 -2.5904 -2.2645 2.1453 0.86495 4.1742 -0.61324 5.1122 -0.04525 0.035727 -0.00029331 -0 0 -0 -0.16604 0.87349 -5.9433 0.49573 0.14833 -2.3108 -1.696 2.0829 1.0954 1.5195 -1.601 -0.50845 -0.022883 -1.8005 -0.012121 -0 0 -0 
